<?xml version="1.0" standalone="no"?>
<!DOCTYPE svg PUBLIC "-//W3C//DTD SVG 20010904//EN"
 "http://www.w3.org/TR/2001/REC-SVG-20010904/DTD/svg10.dtd">
<svg version="1.0" xmlns="http://www.w3.org/2000/svg"
 width="320.000000pt" height="320.000000pt" viewBox="0 0 320.000000 320.000000"
 preserveAspectRatio="xMidYMid meet">

<g transform="translate(0.000000,320.000000) scale(0.100000,-0.100000)"
fill="#000000" stroke="none">
<path d="M160 1605 l0 -445 1300 0 1300 0 0 445 0 445 -55 0 -55 0 0 -385 0
-385 -1185 0 -1185 0 0 325 0 325 1070 0 1070 0 2 -277 3 -278 63 -3 62 -3 0
341 0 340 -1195 0 -1195 0 0 -445z"/>
<path d="M2873 2026 c-65 -29 -84 -123 -35 -176 54 -61 152 -48 187 26 45 95
-54 194 -152 150z m118 -35 c38 -38 39 -87 4 -129 -32 -38 -65 -46 -110 -28
-25 11 -40 26 -51 51 -42 100 80 183 157 106z"/>
<path d="M2877 1983 c-4 -3 -7 -33 -7 -65 0 -44 4 -58 14 -58 8 0 16 10 18 23
2 12 10 22 18 22 8 0 19 -10 25 -22 13 -30 25 -29 25 2 0 14 -5 25 -12 25 -9
0 -9 3 0 12 20 20 14 48 -14 58 -29 12 -58 13 -67 3z m62 -26 c13 -16 5 -27
-21 -27 -18 0 -25 20 -11 33 10 10 19 8 32 -6z"/>
<path d="M350 1833 c0 -4 35 -110 77 -235 l78 -228 66 0 65 0 33 118 c45 160
47 165 56 127 4 -16 21 -77 39 -135 l32 -105 66 -3 67 -3 25 83 c13 46 43 146
67 223 23 77 44 146 46 153 4 9 -13 12 -64 12 l-68 0 -18 -67 c-47 -181 -60
-223 -66 -218 -4 2 -25 67 -46 145 l-38 140 -62 0 -63 0 -7 -37 c-10 -60 -55
-236 -60 -241 -10 -11 -17 9 -49 140 l-32 133 -72 3 c-40 2 -72 -1 -72 -5z"/>
<path d="M1140 1605 l0 -235 55 0 55 0 0 235 0 235 -55 0 -55 0 0 -235z"/>
<path d="M1370 1605 l0 -235 65 0 65 0 0 69 c0 58 4 74 23 96 l22 26 73 -95
73 -96 66 0 65 0 -18 28 c-9 15 -53 79 -96 142 l-79 114 88 88 88 88 -71 0
-70 0 -79 -90 c-43 -49 -82 -87 -87 -84 -4 3 -8 45 -8 95 l0 89 -60 0 -60 0 0
-235z"/>
<path d="M2015 1807 c-29 -69 -165 -424 -165 -431 0 -3 29 -6 64 -6 l63 0 21
50 21 50 79 0 80 0 18 -50 18 -50 68 0 c37 0 68 1 68 3 0 1 -40 106 -89 232
l-89 230 -71 3 -72 3 -14 -34z m110 -157 c10 -30 20 -61 23 -67 3 -10 -11 -13
-52 -13 l-55 0 26 75 c15 41 30 72 34 68 3 -5 15 -33 24 -63z"/>
</g>
</svg>
